<svg enable-background="new 0 0 1091.833 117.487" height="117.487" viewBox="0 0 1091.833 117.487" width="1091.833" xmlns="http://www.w3.org/2000/svg"><g fill="#f16522"><path d="m699.847 38.222c6.439 0 11.335 2.704 12.91 7.308.801 2.343-.096 5.029-2.127 6.939-.804.756-.911 1.786.077 2.278 4.803 2.392 14.255 2.597 14.255-7.275 0-6.721-7.288-16.551-25.931-16.551-18.751 0-28.011 10.62-28.011 19.981 0 19.009 29.854 26.956 29.854 38.24 0 8.786-7.544 12.381-15.266 12.381-8.83 0-14.066-5.09-15.323-12.079-1.023-5.693 1.671-10.177 4.294-12.214.871-.677.909-1.371-.154-1.667-5.634-1.571-12.385.337-15.636 5.953-.553.955-1.083.927-1.488-.1-5.396-13.664-28.727-21.943-28.727-32.812 0-5.51 5.469-10.382 12.637-10.382 6.44 0 11.335 2.704 12.91 7.308.802 2.343-.096 5.029-2.126 6.939-.805.756-.912 1.786.076 2.278 4.804 2.392 14.255 2.597 14.255-7.275 0-6.721-7.288-16.551-25.931-16.551-18.751 0-28.01 10.62-28.01 19.981 0 19.009 29.854 26.956 29.854 38.24 0 8.786-7.544 12.381-15.267 12.381-8.829 0-14.066-5.09-15.323-12.079-1.023-5.693 1.671-10.177 4.294-12.214.872-.677.909-1.371-.154-1.667-6.23-1.737-13.825.782-16.543 7.865-.395 1.031-.837 2.771-1.279 3.783-1.863 4.26-7.987 14.312-24.354 14.312-14.228 0-18.665-12.862-17.942-26.18.06-1.103 1.041-2.008 2.144-2.042 19.324-.609 39.332-5.26 43.888-20.252 5.228-17.206-8.568-22.128-19.755-22.128-26.629 0-35.808 14.295-42.354 35.841-.003.011-.007.022-.01.033-.352 1.163-10.728 34.729-35.45 34.729-19.074 0-20.556-23.118-15.592-39.456s12.103-23.845 23.087-23.845c8.27 0 9.634 10.031 6.772 17.24-.813 2.048-1.365 3.452-1.736 4.404-.401 1.027.048 2.336 1.057 2.784 3.305 1.466 10.411 3.415 14.186-4.566 4.906-10.375 3.561-27.163-19.44-27.163-26.628 0-35.807 14.295-42.353 35.841-.287.942-.575 1.987-.848 3.111-1.647 5.657-9.345 31.65-19.18 31.65-9.504 0 2.344-36.071 7.244-51.888.327-1.055.579-1.903.568-1.895-.011.009-.018.009-.015 0 .001-.006.003-.011.003-.011l4.899-13.757c.371-1.04-.224-1.883-1.328-1.883h-12.943c-1.104 0-2.259.856-2.58 1.913l-7.778 25.6c-.464 1.529-.923 3.053-1.38 4.566-.319 1.057-.617 1.945-.662 1.984-.046.037-.341.926-.637 1.989-.195.7-.38 1.39-.558 2.072-5.368 17.056-11.442 31.31-25.614 31.31-6.123 0-14.952-3.097-9.694-20.404 0 0 10.871-36.037 13.757-45.278 2.98-9.544-6.877-20.234-23.341-13.011-1.011.443-1.877-.042-2.072-1.128-2.135-11.918-13.805-21.703-32.124-21.703-28.279 0-38.848 16.017-39.378 30.134-.956 25.419 38.283 37.468 37.524 57.669-.498 13.252-9.408 22.383-23.865 22.383-33.752 0-26.09-34.309-15.69-41.275.917-.614 1.033-1.41.041-1.894-10.122-4.937-22.583 2.612-25.559 11.022-.347.98-6.629 23.483-17.078 23.483-9.593 0 2.569-36.753 7.379-52.328.01-.031.019-.062.029-.094.13-.423.255-.828.374-1.218.016-.053.032-.106.049-.159l4.897-13.752c.371-1.04-.224-1.883-1.328-1.883h-12.943c-1.104 0-2.259.856-2.58 1.913l-7.778 25.6c-.461 1.518-.917 3.031-1.371 4.534-.319 1.057-.625 1.952-.682 1.999-.056.048-.36.943-.656 2.008-.241.865-.465 1.714-.68 2.551-5.331 16.842-11.424 30.829-25.462 30.829-6.124 0-14.952-3.096-9.694-20.403l14.261-47.117c.32-1.057-.316-1.914-1.42-1.914h-12.948c-1.104 0-2.259.856-2.58 1.913l-3.021 9.941-7.892 25.973c-.383 1.253-9.938 31.606-36.287 31.606-14.228 0-18.666-12.862-17.943-26.18.06-1.103 1.041-2.008 2.144-2.042 19.324-.609 39.332-5.26 43.887-20.252 5.227-17.206-8.568-22.128-19.755-22.128-26.628 0-35.807 14.295-42.353 35.841-.576 1.896-7.868 34.745-18.941 34.745-8.701 0-6.401-7.17 3.176-38.732 7.241-23.864-5.711-31.868-19.173-31.864-11.267.004-18.96 8.145-21.772 11.683-.687.864-1.463.756-1.918-.25-3.233-7.151-10.227-11.421-19.685-11.418-11.164.004-18.906 7.498-21.795 10.829-.724.834-.974.703-.787-.385 1.298-7.583-4.407-11.491-12.409-11.491-9.146 0-15.731 4.739-18.494 7.156-.831.727-1.426 2.292-1.089 3.344.484 1.507 1.623 3.092 4.288 1.542 13.36-7.774 9.786 1.36 5.297 17.615l-14.089 46.21c-.322 1.056.312 1.912 1.416 1.912h13.022c1.104 0 2.26-.856 2.583-1.911l8.444-27.653c.067-.22.136-.44.205-.663.113-.366.114-.363.001.008s.06-.185.403-1.234c5.679-17.354 16.604-37.97 28.768-37.974 6.123-.002 13.792 3.091 8.54 20.4l-14.299 47.123c-.321 1.057.314 1.913 1.418 1.912l13.004-.004c1.104 0 2.259-.857 2.58-1.914l6.804-22.422c5.457-16.764 12.454-45.105 27.199-45.11 5.305-.002 11.463 4.567 5.764 23.351 0 0-4.344 14.316-6.398 21.088-4.722 15.561 3.031 26.162 18.243 26.158 7.53-.004 14.056-5.71 18.818-12.799.616-.916 1.451-.863 2.004.092 4.185 7.236 12.821 12.723 29.332 12.723 16.063 0 27.096-6.461 34.641-14.199.771-.791 1.601-.591 2.022.43 3.863 9.34 15.374 13.77 24.408 13.77 9.675 0 17.832-4.125 24.745-10.881.79-.771 1.633-.557 2.021.477 2.959 7.873 9.217 10.404 14.304 10.404 7.541 0 13.26-4.538 17.363-9.814.678-.871 1.485-.762 1.943.243 4.728 10.372 16.872 18.233 37.88 18.233 21.799 0 44.224-6.323 45.22-32.809.825-21.93-37.581-37.66-36.815-58.01.312-8.309 6.354-19.367 19.495-19.367 10.273 0 16.457 8.361 16.705 17.267.146 5.25-2.27 10.164-3.735 12.642-.562.95-.249 2.006.812 2.312 3.228.934 9.89 2.215 14.497-1.298 1.256-.958 2.56-2.818 3.198-4.045 2.378-4.576 14.035-11.46 6.703 11.612l-10.733 35.326c-5.749 18.924 11.903 27.705 24.628 27.705 9.686 0 17.85-4.135 24.769-10.902.789-.772 1.631-.559 2.018.476 2.955 7.89 9.221 10.427 14.313 10.427 8.878 0 15.454-6.986 20.085-15.041.55-.957 1.253-.899 1.699.111 3.665 8.299 12.298 14.93 30.452 14.93 17.242 0 28.64-8.766 36.168-18.617.67-.877 1.361-.728 1.66.335 2.755 9.791 11.109 18.282 31.651 18.282 14.692 0 23.12-5.413 28.021-11.068.724-.834 1.549-.702 2.045.283 2.966 5.898 10.005 10.785 25.147 10.785 11.708 0 26.185-2.759 31.266-13.139.485-.99.944-.96 1.29.089 2.257 6.856 9.032 13.05 26.08 13.05 14.454 0 33.143-4.193 33.143-21.756 0-17.196-29.835-26.174-29.835-38.465.001-5.51 5.471-10.383 12.639-10.383zm-514.898 15.14c-2.612 8.598-10.562 12.137-28.113 12.727-1.104.037-1.807-.82-1.531-1.889.186-.723.385-1.435.598-2.133 4.964-16.338 12.103-23.845 23.087-23.845 5.718 0 9.186 4.52 5.959 15.14zm29.582-5.658-6.736 22.168-.012.039s5.014-16.502 6.748-22.207c.321-1.057.321-1.057 0 0zm372.536 5.658c-2.612 8.598-10.562 12.137-28.113 12.727-1.104.037-1.807-.82-1.531-1.889.187-.723.386-1.435.598-2.133 4.965-16.338 12.104-23.845 23.088-23.845 5.716 0 9.185 4.52 5.958 15.14z"/><circle cx="798.012" cy="100.784" r="8.041"/><path d="m1083.947 95.31c-1.442 3.664-5.228 6.214-9.208 6.214-8.701 0-6.399-7.173 3.189-38.731 7.249-23.862-5.7-31.871-19.162-31.871-11.267 0-18.963 8.138-21.775 11.675-.688.864-1.464.756-1.918-.25-3.23-7.153-10.223-11.425-19.682-11.425-11.17 0-18.92 7.504-21.809 10.833-.724.833-.992.702-.671-.354l2.248-7.398c.321-1.057-.313-1.913-1.418-1.913h-6.085-6.919c-1.104 0-2.253.859-2.628 1.897-6.271 17.378-20.771 16.353-28.131 5.753-3.51-5.395-9.416-8.819-18.272-8.819-23.275 0-38.12 12.517-45.484 36.957-.101.332-.197.664-.292.996-.157.551-.561 1.85-.959 2.879-2.643 6.806-13.143 29.771-34.572 29.771-19.073 0-20.556-23.118-15.592-39.456s12.103-23.845 23.087-23.845c8.27 0 9.634 10.031 6.772 17.24-.813 2.048-1.365 3.452-1.736 4.404-.401 1.027.048 2.336 1.057 2.784 3.306 1.466 10.411 3.415 14.186-4.566 4.906-10.375 3.561-27.163-19.439-27.163-26.629 0-35.808 14.295-42.354 35.841-3.756 12.36-7.965 42.063 30.459 42.063 18.786 0 29.426-8.695 35.864-18.125.622-.911 1.198-.782 1.405.303 1.971 10.319 9.16 17.822 24.727 17.822 21.784 0 36.537-16.772 42.615-36.777 1.491-4.907 2.387-9.882 2.564-14.595.041-1.104.868-1.679 1.929-1.371 5.562 1.613 10.313.962 14.313-.935.998-.473 1.504-.085 1.184.972l-15.02 49.625c-.32 1.057.315 1.913 1.419 1.913h12.943c1.104 0 2.259-.856 2.58-1.913l8.401-27.651c5.488-17.71 16.775-39.87 29.388-39.87 6.123 0 13.792 3.096 8.534 20.403l-14.316 47.118c-.32 1.057.314 1.913 1.418 1.913h13.005c1.104 0 2.259-.856 2.58-1.913l6.812-22.42c5.463-16.762 12.469-45.101 27.214-45.101 5.305 0 11.462 4.572 5.756 23.353 0 0-4.349 14.314-6.406 21.085-4.728 15.56 4.031 26.165 16.235 26.165 10.666 0 16.443-4.452 19.207-9.671 1.476-2.787.621-7.199-4.793-6.272-1.087.183-2.045 1.398-2.45 2.426zm-147.892-25.437c-5.567 18.326-16.404 31.65-26.802 31.65-12.201 0-9.673-21.789-5.926-34.14 3.805-12.544 10.98-29.162 25.014-29.162 10.193.001 13.282 13.325 7.714 31.652z"/><path d="m770.046 30.921c-23.275 0-38.12 12.517-45.484 36.957-6.038 20.041-3.381 40.947 22.612 40.947 21.784 0 36.538-16.772 42.616-36.777s2.266-41.127-19.744-41.127zm4.348 38.952c-5.567 18.326-16.404 31.65-26.801 31.65-12.202 0-9.673-21.789-5.927-34.14 3.806-12.544 10.981-29.162 25.014-29.162 10.194.001 13.282 13.325 7.714 31.652z"/></g></svg>